# xmcd CD database file
#
# Track frame offsets:
#	150
#	5992
#	31496
#	52476
#	71166
#	90960
#	107514
#	129912
#	152508
#
# Disc length: 2280 seconds
#
# Revision: 1
# Processed by: cddbd v1.5.1PL0 Copyright (c) Steve Scherf et al.
# Submitted via: CDex 1.51
#
DISCID=7308e609
DTITLE=清水愛 - 発芽条件M
DYEAR=2005
DGENRE=Seiyu
TTITLE0=Le Sablier
TTITLE1=発芽条件M
TTITLE2=天に降る雨
TTITLE3=林檎橋おちた
TTITLE4=ヒト恋ウ不埒
TTITLE5=繭々退化
TTITLE6=螺旋のプロローグ
TTITLE7=CAMEO,CAMEO
TTITLE8=幻視鏡
EXTD=YEAR: 2005/04/27
EXTT0=
EXTT1=
EXTT2=
EXTT3=
EXTT4=
EXTT5=
EXTT6=
EXTT7=
EXTT8=
PLAYORDER=
